<svg xmlns="http://www.w3.org/2000/svg" width="910" height="410" viewBox="0 0 910 410">
  <g id="Banner-Discord-HQ-Left">
    <g>
      <g id="phibi">
        <g>
          <path d="M204.55,151.54c-10.1-.5-14.1,6-23.2,34.7l48.4,6.1C225.85,166.94,215.85,152.14,204.55,151.54Z" style="fill: #34f4cf"/>
          <path d="M204.55,177c.2,10.3-3.1,12.3-9.3,13.4s-7.9-2.9-6.3-9.1,5.5-12.3,9.3-13S204.45,171.34,204.55,177Z"/>
          <path d="M278.85,164c-11.4-.7-19.9,9.3-29.1,31L303,218C299.15,177.44,290.25,164.64,278.85,164Z" style="fill: #34f4cf"/>
          <path d="M275.65,190.24c-1,11.9-4.7,14.1-11.1,15.3s-7.7-3-5.8-9.7,6.6-14.6,10.8-15.8S276.25,183.34,275.65,190.24Z"/>
          <path d="M327.85,265.54c-1.5,39.3-47.5,71.7-102.1,65.7-64.7-7-102.4-59.5-102.1-108.6.2-39.4,36-45,106.6-34.3C295.55,198.34,329.45,226.24,327.85,265.54Z" style="fill: #34f4cf"/>
          <path d="M188.25,232.54l-28.2-31.2-3.3,2.7c-16.1,17.7-13.6,58.1-3.8,91.6,17.4,18.6,42,32.3,72.8,35.6a115.87,115.87,0,0,0,42-3c-12.9-33.4-9.8-66.2,6-91.8Z" style="fill: #adfddc"/>
          <path d="M220.35,233.84c5.3,7.3,7.7,14,6.9,26.3a11.8,11.8,0,0,0,10.3,12.4h0a11.64,11.64,0,0,0,13.3-11.3c.5-16.8-5.7-24.2-10.2-27.3Z" style="fill: #ff78b9"/>
          <path d="M65.55,226.14c27.1-40.2,30.5-47.7,22.7-53.6s-16.2,2.1-40.5,39.9c.2-47.7,1.6-61.7-10.5-62s-9.8,17.6-9.6,58.4c-8.6-8.9-15.6-7.9-20.2-4.4s-5.2,6.4-2.6,18.9a36.36,36.36,0,0,0-4.8,20.1c1.1,17,15.5,24.2,27.8,30.2s24.4,7.3,31.9,1.7c16.6-12.4,23.6-21.4,22.5-30.3S74.65,231.24,65.55,226.14Z" style="fill: #34f4cf"/>
          <path d="M3.15,227.44c1.7,6.4,4.5,10.6,8.3,12.4a10.37,10.37,0,0,0,4.7,1.1,13.06,13.06,0,0,0,5.6-1.3c5.3-2.3,7.3-7.1,2.8-26.1a1.2,1.2,0,0,0-1.4-.95l-.2,0a1.31,1.31,0,0,0-1,1.54s0,0,0,.06c4.5,18.8,2.1,21.5-1.2,23-1.7.7-5,1.7-8.1.2s-5.4-5.1-6.9-10.7c-.4-1.2-.6-2.3-.9-3.3-.66,1.14-1.26,2.31-1.8,3.5C3.08,227.11,3.11,227.28,3.15,227.44Z" style="fill: #0ec2bc"/>
          <path d="M34.65,221.84c-3,6.6.7,13.3,13.5,23.4-7.4-1.8-15.4-1.1-20.8,8.2a1.3,1.3,0,0,0,.47,1.78l0,0,.6.2a1.28,1.28,0,0,0,1.2-.7c4.9-8.5,12.8-9.8,25.6-4.3a1.2,1.2,0,0,0,1.6-.58v0a1.19,1.19,0,0,0-.34-1.66l-.06,0c-16.9-12.2-22.2-19-19.4-25.2s10.8-3.8,28.5,3.2l1.5-2.3h-.2C48.85,216.74,38.55,213.14,34.65,221.84Z" style="fill: #0ec2bc"/>
          <path d="M160.85,200.44c9.8,7.2,17.9,16.8,24.5,26.8A14.11,14.11,0,0,0,188,230a8,8,0,0,0,3.4,1.3,46,46,0,0,0,8.6.6c5.9.1,11.9,0,18,0,12-.1,24,.2,36.1.7,6,.2,12,.5,18,1s12,1,18,1.8a1.21,1.21,0,0,1,1.12,1.28.43.43,0,0,1,0,.12,1.39,1.39,0,0,1-1.4,1.1c-5.9-.6-11.9-1-17.9-1.3l-18-.7c-11.9-.3-23.9-.3-35.9-.2-6,.1-12,.2-18.1.1H193l-2.4-.4a12,12,0,0,1-4.9-2,15,15,0,0,1-3.5-3.7l-2.6-3.8-2.6-3.6c-1.7-2.3-3.6-4.7-5.5-6.9a124.94,124.94,0,0,0-12.2-12.9,1.3,1.3,0,0,1,1.6-2Z"/>
          <path d="M297.85,235.64c3.8,11.7-2.4,20.5-12.5,18.8-8.5-1.4-16-10.1-17.7-18.9s2.3-15.1,9.1-16.1S294.45,225,297.85,235.64Z" style="fill: #4c7dff"/>
          <path d="M170.25,201.54c-3.3,4.5-12.8,7.7-20.8,7.2s-11-4-8.2-8,11.4-7.3,19.4-7.3S173.65,197,170.25,201.54Z" style="fill: #4c7dff"/>
          <path d="M241.65,264h-.2a1.4,1.4,0,0,1-1.31-1.48.49.49,0,0,0,0-.12c1.4-12.9-1.9-22.5-9.4-27a1.53,1.53,0,1,1,1.6-2.6c8.5,5.2,12.3,15.8,10.8,29.9A1.58,1.58,0,0,1,241.65,264Z"/>
        </g>
        <g>
          <path d="M540.85,270h-.5a1.4,1.4,0,0,1-.7-1.8c8-19,21.2-30.8,42.7-38.2a1.31,1.31,0,0,1,1.65.85,1.29,1.29,0,0,1-.85,1.65c-21,7.3-33.3,18.3-41.1,36.8A1.28,1.28,0,0,1,540.85,270Z" style="fill: #fff"/>
          <path d="M543.05,265.54h-.5a1.3,1.3,0,0,1-.7-1.7c6.8-18.6-3.4-50.8-3.5-51.2a1.2,1.2,0,0,1,.68-1.55l.12-.05a1.41,1.41,0,0,1,1.7.8c.4,1.4,10.6,33.5,3.4,52.9A1.38,1.38,0,0,1,543.05,265.54Z" style="fill: #fff"/>
          <path d="M538,279.64h-.4a1.28,1.28,0,0,1-.81-1.64s0,0,0-.06c3.6-10.3,7.3-20.3,10.9-30,5-13.3,9.6-25.8,12.4-35a1.22,1.22,0,0,1,1.48-.84l.12,0a1.3,1.3,0,0,1,.9,1.6c-2.8,9.2-7.3,21.2-12.4,35.1-3.6,9.7-7.4,19.7-11,29.9A1.09,1.09,0,0,1,538,279.64Z" style="fill: #fff"/>
          <path d="M586.85,273.34c-11.1-8.7-15.4-12.9-18.1-18.9a22.17,22.17,0,0,1-1.4-9.2,57.4,57.4,0,0,1,.8-6.9c1-5.7-3.2-5.9-5.1-4s-2.6,3.5-3.9,7.3a64.28,64.28,0,0,0-2,7.3l-4.3-3.9c-5.1-4.7-7.4-8.1-14.6-8.7s-8.8,2.9-6.8,11.7c-5.6,1.1-7.3,2.4-5.5,7.4.4.9,1.2,4,1.2,4a26.57,26.57,0,0,0-4.7,2.3c-3.2,2-2.3,4.8-.7,9.5-4.1,1.2-5,2.6-4,10.3s2.6,8.5,9.4,13a7.69,7.69,0,0,0,8.7-.2l1-.6a64,64,0,0,0,14.5,8.3c7.1,3.1,13.7,5.6,18.6,7.3a18.47,18.47,0,0,0,18.9-4.2l.4-.3a21.19,21.19,0,0,0-.62-30A21.72,21.72,0,0,0,586.85,273.34Z" style="fill: #66bcff"/>
          <path d="M522.35,308.14a1.06,1.06,0,0,1-.8-.3,1.31,1.31,0,0,1-.3-1.8c2.8-4,6-9.1,9.5-15.1a1.34,1.34,0,0,1,1.8-.5,1.32,1.32,0,0,1,.5,1.8c-3.6,6.1-6.9,11.3-9.7,15.3A1.08,1.08,0,0,1,522.35,308.14Z" style="fill: #fff"/>
          <path d="M527.25,315.54h-.1a1.2,1.2,0,0,1-1.21-1.18,1.7,1.7,0,0,1,0-.22c1.3-14.7,4.6-22.7,4.8-23.1a1.31,1.31,0,0,1,1.7-.7,1.29,1.29,0,0,1,.7,1.7c-.1.1-3.4,8.1-4.6,22.3A1.29,1.29,0,0,1,527.25,315.54Z" style="fill: #fff"/>
          <path d="M532.65,310.64a1.4,1.4,0,0,1-1.3-1v-.4c-1.3-5-2.5-9.7-.6-18a1.21,1.21,0,0,1,1.41-.95l.19,0a1.29,1.29,0,0,1,1,1.5c-1.8,7.7-.6,12.1.6,16.7v.5a1.3,1.3,0,0,1-.93,1.59h-.37Z" style="fill: #fff"/>
          <circle cx="587.75" cy="151.14" r="59.4" style="fill: #3442d9"/>
          <path d="M603.85,117.54a3.76,3.76,0,0,1-1.8-.4,37,37,0,0,0-21-2.2,4.83,4.83,0,0,1-1.8-9.5,47.29,47.29,0,0,1,26.5,2.8,4.84,4.84,0,0,1-1.9,9.3Z" style="fill: #5865f2"/>
          <path d="M564.85,205.94l-8.8,6.8a2,2,0,0,0-.35,2.81,2,2,0,0,0,.75.59l7.1,2.9a1.89,1.89,0,0,0,2.54-.89,1.84,1.84,0,0,0,.16-1.11Z" style="fill: #3442d9"/>
          <circle cx="515.85" cy="150.04" r="59.4" style="fill: #eb459f"/>
          <path d="M486.35,123.44a4.8,4.8,0,0,1-3.3-8.3,50.37,50.37,0,0,1,15.7-9.8,47.9,47.9,0,0,1,20.8-3,4.81,4.81,0,0,1,4.41,5.17v0a4.8,4.8,0,0,1-5.16,4.41h0a39.78,39.78,0,0,0-16.6,2.4,38.1,38.1,0,0,0-12.5,7.8A4.56,4.56,0,0,1,486.35,123.44Z" style="fill: #ff78b9"/>
          <path d="M537.05,205.54l-1.7,10.9a2,2,0,0,0,1.68,2.28,1.91,1.91,0,0,0,.92-.08l7.2-2.8a2,2,0,0,0,1.08-2.61,2.17,2.17,0,0,0-.47-.69Z" style="fill: #eb459f"/>
          <circle cx="641.35" cy="202.54" r="59.4" style="fill: #ffe75c"/>
          <path d="M604.55,190.14a4.35,4.35,0,0,1-2-.4,4.91,4.91,0,0,1-2.3-6.5,45.63,45.63,0,0,1,42.8-26.1,4.9,4.9,0,0,1-.3,9.7,35.43,35.43,0,0,0-17.2,3.6,35.86,35.86,0,0,0-16.6,16.9A4.78,4.78,0,0,1,604.55,190.14Z" style="fill: #fff2a6"/>
          <path d="M534.35,295.14a5,5,0,0,0,1.5-.8l.9-.6h0c-5.1-3.6-8.9-9-9.7-12.2a1.35,1.35,0,0,0-2.61.64s0,0,0,.06C525.45,286.14,529.55,291.44,534.35,295.14Z"/>
          <path d="M524.25,288.34a1.4,1.4,0,0,1-1.3-1.1,1.19,1.19,0,0,1,.85-1.46l.15,0,3.6-.8a1.4,1.4,0,0,1,1.6,1,1.3,1.3,0,0,1-.93,1.59h-.07l-3.7.7Z"/>
          <path d="M522,271.64a1.28,1.28,0,0,1-.37-2.48l.07,0,5.5-1.4a1.29,1.29,0,0,1,.6,2.5l-5.5,1.3Z" style="fill: #3b9eff"/>
          <path d="M526.65,259.64a1.29,1.29,0,0,1-1.2-.9,1.2,1.2,0,0,1,.8-1.49h0l6-2a1.2,1.2,0,0,1,1.56.68.56.56,0,0,1,0,.12,1.19,1.19,0,0,1-.79,1.5h0l-6,2Z" style="fill: #3b9eff"/>
          <path d="M531.45,248a1.4,1.4,0,0,1-1.2-.9,1.1,1.1,0,0,1,.62-1.42,1.47,1.47,0,0,1,.28-.08l7.4-2.1a1.21,1.21,0,0,1,1.49.83s0,0,0,.07a1.19,1.19,0,0,1-.79,1.5h0l-7.4,2.1Z" style="fill: #3b9eff"/>
          <path d="M567.05,208.94h-.4l-5.1-1.4a1.35,1.35,0,0,1,.64-2.61h.07l5.1,1.4a1.31,1.31,0,0,1,.9,1.6A1.2,1.2,0,0,1,567.05,208.94Z" style="fill: #fff"/>
          <path d="M534.55,208.54a1.4,1.4,0,0,1-1.3-1,1.3,1.3,0,0,1,.9-1.6l5.7-1.7a1.4,1.4,0,0,1,1.7.9,1.29,1.29,0,0,1-.9,1.6l-5.8,1.7Z" style="fill: #fff"/>
          <path d="M556.85,246.94a1.18,1.18,0,0,1-1-.4,1.3,1.3,0,0,1,0-1.83l.06-.07c6.9-6.2,15.31-10.8,26.4-14.7a1.31,1.31,0,0,1,1.65.85,1.29,1.29,0,0,1-.85,1.65c-10.7,3.7-18.8,8.2-25.5,14.2A1,1,0,0,1,556.85,246.94Z" style="fill: #fff"/>
          <path d="M588.05,228.84l-6.2,9.2a1.9,1.9,0,0,1-3.4-.2l-3.39-6.9a2,2,0,0,1,.88-2.68,2,2,0,0,1,1-.22Z" style="fill: #ffe75c"/>
          <path d="M588.25,233.54a1.4,1.4,0,0,1-1.2-.9l-1.9-4.9a1.19,1.19,0,0,1,.51-1.61,1.63,1.63,0,0,1,.19-.09,1.3,1.3,0,0,1,1.7.7l2,5a1.39,1.39,0,0,1-.8,1.7Z" style="fill: #fff"/>
          <path d="M393.75,321h51.7a16.18,16.18,0,0,1,16.2,16.16h0a16.17,16.17,0,0,1-16.2,16.15h-51.7a16.18,16.18,0,0,1-16.2-16.15h0A16.19,16.19,0,0,1,393.75,321Z" style="fill: #fff"/>
          <path d="M393.75,329.84a7.4,7.4,0,1,1-7.4,7.4A7.4,7.4,0,0,1,393.75,329.84Z" style="fill: #8cd9ff"/>
          <circle cx="419.65" cy="337.24" r="7.4" style="fill: #66bcff"/>
          <circle cx="445.55" cy="337.24" r="7.4" style="fill: #8cd9ff"/>
        </g>
      </g>
      <g id="extras">
        <path d="M130.35,319.94a14,14,0,0,1-6.3-9.7l-1-6.7a.6.6,0,0,0-.6-.6h0c-.4,0-.7.2-.7.6l-1,6.7a14,14,0,0,1-6.3,9.7l-.8.5a.94.94,0,0,0-.3.6h0a.6.6,0,0,0,.3.6l.8.6a14,14,0,0,1,6.3,9.6l1,6.8a.69.69,0,0,0,.7.6h0a.59.59,0,0,0,.6-.6l1-6.8a14.08,14.08,0,0,1,6.3-9.6l.9-.6a.57.57,0,0,0,.3-.6h0a.85.85,0,0,0-.3-.6Z" style="fill: #66bcff"/>
        <path d="M168.55,136a6.71,6.71,0,0,1-3.1-4.8l-.5-3.4-.3-.3h0a.42.42,0,0,0-.4.3l-.5,3.4a6.65,6.65,0,0,1-3.1,4.8l-.4.3-.2.3h0c0,.1.1.3.2.3l.4.3a6.9,6.9,0,0,1,3.1,4.8l.5,3.4c0,.2.2.3.4.3h0a.29.29,0,0,0,.3-.3h0l.5-3.4a7,7,0,0,1,3.1-4.8l.5-.3c.1,0,.1-.2.1-.3h0a.39.39,0,0,0-.1-.3Z" style="fill: #7196ff"/>
        <path d="M672.55,267.54a14,14,0,0,1-6.3-9.7l-1-6.7a.6.6,0,0,0-.6-.6h0c-.4,0-.7.2-.7.6l-1,6.7a14,14,0,0,1-6.3,9.7l-.8.6a.75.75,0,0,0-.4.5h0a.71.71,0,0,0,.4.5l.8.6a14,14,0,0,1,6.3,9.7l1,6.7c0,.4.3.6.7.6h0a.59.59,0,0,0,.6-.6h0l1-6.7a14,14,0,0,1,6.3-9.7l.9-.6a.81.81,0,0,0,.3-.5h0a.87.87,0,0,0-.3-.5Z" style="fill: #fff"/>
        <path d="M380.35,197.84a31.62,31.62,0,0,1-14.2-21.9l-2.3-15.3a1.51,1.51,0,0,0-1.5-1.3h0a1.53,1.53,0,0,0-1.5,1.3l-2.3,15.3a31.56,31.56,0,0,1-14.2,21.9l-1.9,1.3a1.53,1.53,0,0,0-.7,1.3h0a1.51,1.51,0,0,0,.7,1.3l1.9,1.3a31.6,31.6,0,0,1,14.2,21.9l2.3,15.3a1.42,1.42,0,0,0,1.5,1.31h0a1.39,1.39,0,0,0,1.5-1.29h0l2.3-15.3a31.66,31.66,0,0,1,14.2-21.9l2-1.3a1.68,1.68,0,0,0,.7-1.3h0a1.71,1.71,0,0,0-.7-1.3Z" style="fill: #3442d9"/>
      </g>
    </g>
  </g>
</svg>
